<?xml version="1.0" standalone="no"?>
<!DOCTYPE svg PUBLIC "-//W3C//DTD SVG 20010904//EN"
 "http://www.w3.org/TR/2001/REC-SVG-20010904/DTD/svg10.dtd">
<svg version="1.0" xmlns="http://www.w3.org/2000/svg"
 width="260.000000pt" height="260.000000pt" viewBox="0 0 260.000000 260.000000"
 preserveAspectRatio="xMidYMid meet">
<metadata>
Created by potrace 1.11, written by Peter Selinger 2001-2013
</metadata>
<g transform="translate(0.000000,260.000000) scale(0.100000,-0.100000)"
fill="#000000" stroke="none">
<path d="M3 1300 l0 -900 239 0 238 0 2 497 3 497 179 -250 c99 -137 261 -360
359 -496 l180 -248 304 0 305 0 -38 52 c-70 98 -938 1293 -947 1303 -7 8 -51
69 -123 170 -35 49 -124 171 -132 181 -5 5 -22 29 -37 52 l-28 42 -252 0 -252
0 0 -900z"/>
<path d="M807 2187 c9 -16 184 -258 196 -272 4 -5 73 -100 153 -210 161 -223
171 -236 281 -387 43 -58 211 -289 372 -512 l295 -406 248 0 248 0 0 900 0
900 -235 0 -235 0 -1 -22 c0 -13 -1 -236 -1 -495 0 -260 -2 -473 -3 -473 -3 0
-325 441 -355 487 -25 37 -293 408 -299 413 -4 3 -19 24 -35 48 l-29 42 -304
0 c-249 0 -303 -2 -296 -13z"/>
</g>
</svg>
